<?xml version="1.0" encoding="utf-8"?>
<!-- Generator: Adobe Illustrator 21.0.0, SVG Export Plug-In . SVG Version: 6.00 Build 0)  -->
<svg version="1.1" id="Layer_1" xmlns="http://www.w3.org/2000/svg" xmlns:xlink="http://www.w3.org/1999/xlink" x="0px" y="0px"
	 viewBox="0 0 2000 525.3" style="enable-background:new 0 0 2000 525.3;" xml:space="preserve">
<style type="text/css">
	.st0{fill:#FFFFFF;}
</style>
<g>
	<polygon class="st0" points="442.7,51.6 503,51.6 503,2.4 389.8,2.4 389.8,253.1 442.7,253.1 	"/>
	<polygon class="st0" points="647.4,203.4 584,203.4 584,151 634.8,151 634.8,101.3 584,101.3 584,51.6 647.4,51.6 647.4,2.4 
		531.1,2.4 531.1,253.1 647.4,253.1 	"/>
	<polygon class="st0" points="701.4,253.1 754.3,253.1 754.3,51.6 792.9,51.6 792.9,2.4 662.8,2.4 662.8,51.6 701.4,51.6 	"/>
	<polygon class="st0" points="928.9,203.4 864.9,203.4 864.9,151 915.6,151 915.6,101.3 864.9,101.3 864.9,51.6 928.9,51.6 
		928.9,2.4 812.5,2.4 812.5,253.1 928.9,253.1 	"/>
	<path class="st0" d="M1007.7,164.8h9.5c40.7,0,62.9-23.3,62.9-66.1V68.5c0-42.3-22.2-66.1-62.9-66.1h-62.4v250.7h52.9V164.8z
		 M1007.7,51.6h9.5c5.8,0,10.1,0,10.1,14.3v35.4c0,14.3-4.2,14.3-10.1,14.3h-9.5V51.6z"/>
	<path class="st0" d="M1161.1,255.8c40.2,0,64-24.9,64-67.2V66.9c0-41.8-23.8-67.2-64-67.2s-64,24.9-64,67.2v122.2
		C1097.1,230.9,1121.4,255.8,1161.1,255.8z M1172.2,191.2c0,14.3-5.3,15.3-11.1,15.3s-11.1-1.1-11.1-15.3v-127
		c0-14.3,5.3-15.3,11.1-15.3s11.1,1.1,11.1,15.3V191.2z"/>
	<polygon class="st0" points="1333,253.1 1333,51.6 1371.6,51.6 1371.6,2.4 1241.5,2.4 1241.5,51.6 1280.1,51.6 1280.1,253.1 	"/>
	<path class="st0" d="M1451.5,255.8c40.2,0,64-24.9,64-67.2V66.9c0-42.3-23.8-67.2-64-67.2s-64,24.9-64,67.2v122.2
		C1387.5,230.9,1411.8,255.8,1451.5,255.8z M1462.6,191.2c0,14.3-5.3,15.3-11.1,15.3s-11.1-1.1-11.1-15.3v-127
		c0-14.3,5.3-15.3,11.1-15.3s11.1,1.1,11.1,15.3V191.2z"/>
	<polygon class="st0" points="1595.3,51.6 1621.3,51.6 1621.3,253.1 1674.7,253.1 1674.7,2.4 1542.4,2.4 1542.4,253.1 1595.3,253.1 
			"/>
	<polygon class="st0" points="1788.9,141.5 1788.9,253.1 1838.1,253.1 1838.1,2.4 1783.7,2.4 1753.5,98.1 1753.5,2.4 1704.8,2.4 
		1704.8,253.1 1756.7,253.1 	"/>
	<polygon class="st0" points="1946,2.4 1915.9,98.1 1915.9,2.4 1867.2,2.4 1867.2,253.1 1919.1,253.1 1951.3,141.5 1951.3,253.1 
		2000,253.1 2000,2.4 	"/>
	<path class="st0" d="M62.9,269C22.7,269,0,293.3,0,336.2v122.2c0,42.3,22.7,67.2,62.9,67.2s62.9-24.3,62.9-67.2v-39.1H75.1v41.3
		c0,13.8-5.3,14.8-11.1,14.8c-6.3,0-11.1-1.1-11.1-14.8v-127c0-14.3,5.3-15.3,11.1-15.3c5.8,0,11.1,1.1,11.1,15.3v33.3h50.8v-30.7
		C125.9,293.3,103.1,269,62.9,269z"/>
	<path class="st0" d="M205.2,269c-40.2,0-64,24.9-64,67.2v122.2c0,41.8,23.8,67.2,64,67.2s64-24.9,64-67.2V336.2
		C269.2,294.4,244.9,269,205.2,269z M194.1,333.5c0-14.3,5.3-15.3,11.1-15.3c5.8,0,11.1,1.1,11.1,15.3v127
		c0,14.3-5.3,15.3-11.1,15.3c-5.8,0-11.1-1.1-11.1-15.3V333.5z"/>
	<rect x="287.2" y="372.7" class="st0" width="83" height="49.2"/>
	<path class="st0" d="M500.4,389.1c11.1-10.1,16.4-25.4,16.4-46.5V334c0-41.8-20.6-61.9-62.4-61.9h-63.5v250.7H457
		c41.3,0,64-22.7,64-63.5v-19C521,416,514.1,399.1,500.4,389.1z M464.4,350.4c0,14.3-4.8,16.9-14.3,16.9h-6.3v-46h10.1
		c5.3,0,11.1,0,11.1,16.4v12.7C465,350.4,464.4,350.4,464.4,350.4z M443.8,416.6h8.5c10.6,0,15.9,1.1,15.9,20.6v20.6
		c0,15.3-5.3,15.3-11.1,15.3h-13.2V416.6z"/>
	<path class="st0" d="M601.4,271.6H539v250.7h52.9V434h9.5c40.7,0,62.9-23.3,62.9-66.1v-30.7C664.4,295.4,641.6,271.6,601.4,271.6z
		 M591.9,321.3h9.5c5.8,0,10.1,0,10.1,14.3v35.4c0,14.3-4.2,14.3-10.1,14.3h-9.5V321.3z"/>
	<polygon class="st0" points="677.1,522.3 793.4,522.3 793.4,473.2 730,473.2 730,420.3 780.7,420.3 780.7,370.5 730,370.5 
		730,321.3 793.4,321.3 793.4,271.6 677.1,271.6 	"/>
	<polygon class="st0" points="898.2,395.4 878.1,271.6 812,271.6 812,522.3 860.1,522.3 860.1,445.1 872.8,522.3 921.4,522.3 
		932,451.5 932,522.3 982.8,522.3 982.8,271.6 916.7,271.6 	"/>
	<polygon class="st0" points="1005.6,522.3 1121.9,522.3 1121.9,473.2 1057.9,473.2 1057.9,420.3 1108.7,420.3 1108.7,370.5 
		1057.9,370.5 1057.9,321.3 1121.9,321.3 1121.9,271.6 1005.6,271.6 	"/>
	<polygon class="st0" points="1219.3,372.7 1193.3,372.7 1193.3,271.6 1140.4,271.6 1140.4,522.3 1193.3,522.3 1193.3,421.8 
		1219.3,421.8 1219.3,522.3 1272.7,522.3 1272.7,271.6 1219.3,271.6 	"/>
	<polygon class="st0" points="1374.2,372.7 1348.3,372.7 1348.3,271.6 1295.4,271.6 1295.4,522.3 1348.3,522.3 1348.3,421.8 
		1374.2,421.8 1374.2,522.3 1427.7,522.3 1427.7,271.6 1374.2,271.6 	"/>
	<path class="st0" d="M1511.2,269c-40.2,0-64,24.9-64,67.2v122.2c0,41.8,23.8,67.2,64,67.2s64-24.9,64-67.2V336.2
		C1575.2,294.4,1551.4,269,1511.2,269z M1500.1,333.5c0-14.3,5.3-15.3,11.1-15.3s11.1,1.1,11.1,15.3v127c0,14.3-5.3,15.3-11.1,15.3
		s-11.1-1.1-11.1-15.3V333.5z"/>
	<path class="st0" d="M1655.1,269c-40.2,0-62.9,24.3-62.9,67.2v122.2c0,42.3,22.7,67.2,62.9,67.2s62.9-24.3,62.9-67.2v-39.1h-50.8
		v41.3c0,13.8-5.3,14.8-11.1,14.8c-6.3,0-11.1-1.1-11.1-14.8v-127c0-14.3,5.3-15.3,11.1-15.3s11.1,1.1,11.1,15.3v33.3h50.8v-30.7
		C1718.1,293.3,1694.8,269,1655.1,269z"/>
	<polygon class="st0" points="1725.5,321.3 1764.1,321.3 1764.1,522.3 1817,522.3 1817,321.3 1855.1,321.3 1855.1,271.6 
		1725.5,271.6 	"/>
	<polygon class="st0" points="1915.9,367.4 1915.9,271.6 1867.2,271.6 1867.2,522.3 1919.1,522.3 1951.3,410.7 1951.3,522.3 
		2000,522.3 2000,271.6 1946,271.6 	"/>
</g>
</svg>
